<?xml version="1.0" standalone="no"?>
<!DOCTYPE svg PUBLIC "-//W3C//DTD SVG 20010904//EN"
 "http://www.w3.org/TR/2001/REC-SVG-20010904/DTD/svg10.dtd">
<svg version="1.0" xmlns="http://www.w3.org/2000/svg"
 width="784.000000pt" height="784.000000pt" viewBox="0 0 784.000000 784.000000"
 preserveAspectRatio="xMidYMid meet">
<metadata>
Created by potrace 1.11, written by Peter Selinger 2001-2013
</metadata>
<g transform="translate(0.000000,784.000000) scale(0.100000,-0.100000)"
fill="#000000" stroke="none">
<path d="M6099 6716 c-2 -2 -29 -6 -59 -10 -30 -3 -62 -8 -70 -9 -23 -6 -114
-20 -120 -19 -3 0 -13 -4 -23 -10 -10 -5 -26 -11 -35 -13 -76 -14 -356 -137
-389 -171 -8 -8 -19 -14 -24 -14 -5 0 -17 -6 -26 -14 -10 -8 -47 -36 -83 -63
-73 -53 -240 -216 -285 -278 -17 -22 -32 -42 -35 -45 -20 -18 -100 -152 -145
-245 -47 -96 -105 -250 -119 -318 -3 -12 -8 -33 -11 -47 -3 -14 -8 -41 -10
-60 -3 -19 -7 -45 -10 -56 -3 -12 -8 -80 -11 -150 -3 -71 -8 -132 -11 -136 -2
-5 0 -8 5 -8 6 0 7 -14 2 -35 -5 -23 -4 -35 3 -35 8 0 8 -3 0 -11 -7 -7 -8
-21 -3 -39 4 -15 4 -33 0 -41 -5 -7 -6 -17 -3 -22 7 -12 7 -116 0 -123 -3 -4
-2 -16 3 -28 4 -13 5 -28 0 -35 -4 -7 -4 -28 0 -47 4 -19 4 -36 0 -39 -5 -3
-5 -18 0 -34 4 -16 6 -32 2 -35 -7 -7 -6 -102 1 -114 3 -4 2 -14 -3 -22 -4 -7
-4 -24 0 -36 6 -14 5 -26 0 -29 -5 -3 -5 -18 0 -34 4 -15 4 -34 0 -42 -5 -7
-6 -17 -3 -22 3 -5 5 -35 4 -66 -1 -31 -1 -65 -1 -76 1 -11 1 -27 0 -35 0 -8
0 -28 1 -45 1 -16 1 -37 0 -45 -1 -8 -1 -24 -1 -35 1 -11 1 -27 1 -35 -3 -61
-2 -111 3 -119 4 -5 2 -12 -3 -15 -6 -4 -6 -18 -1 -36 5 -16 5 -32 0 -35 -5
-3 -5 -18 0 -34 4 -15 4 -34 0 -42 -5 -7 -6 -17 -3 -22 7 -12 7 -116 0 -123
-3 -4 -2 -16 3 -28 4 -13 5 -28 0 -35 -4 -7 -4 -28 0 -47 4 -19 4 -36 0 -39
-5 -3 -5 -18 0 -34 4 -16 6 -32 2 -35 -7 -7 -6 -102 1 -114 3 -4 2 -14 -3 -22
-4 -7 -4 -24 0 -36 6 -14 5 -26 0 -29 -5 -3 -5 -18 0 -34 4 -15 4 -34 0 -42
-5 -7 -6 -17 -3 -22 3 -5 5 -35 4 -66 -1 -31 -1 -65 -1 -76 1 -11 1 -27 1 -35
-6 -126 12 -300 45 -429 9 -36 17 -72 19 -80 9 -40 60 -165 102 -251 119 -245
311 -464 540 -618 34 -23 66 -42 72 -42 5 0 11 -4 13 -9 4 -11 129 -74 221
-110 81 -32 236 -76 307 -87 25 -3 56 -8 70 -11 74 -13 342 -11 435 3 137 22
140 22 140 24 0 1 7 3 15 5 106 21 315 106 434 176 151 90 327 242 431 374 22
28 43 51 48 53 4 2 7 10 7 18 0 8 5 14 10 14 6 0 10 7 10 15 0 8 5 15 10 15 6
0 10 7 10 15 0 8 3 15 8 15 4 0 12 8 17 18 34 63 112 223 123 252 16 40 51
148 56 170 2 8 9 33 15 55 39 147 40 178 37 1590 -1 748 -5 1375 -9 1393 -3
18 -11 59 -17 90 -6 31 -13 67 -16 79 -21 103 -126 351 -196 463 -113 181
-292 363 -481 489 -160 108 -440 218 -595 236 -20 2 -48 7 -62 11 -26 6 -355
16 -361 10z"/>
<path d="M1415 4309 c-108 -14 -130 -17 -145 -23 -8 -3 -28 -7 -45 -9 -59 -9
-220 -68 -329 -121 -93 -46 -228 -125 -246 -146 -3 -3 -23 -18 -45 -35 -45
-33 -227 -215 -265 -265 -14 -18 -42 -58 -62 -89 -21 -31 -43 -62 -49 -69 -6
-7 -35 -63 -64 -125 -54 -114 -91 -215 -118 -322 -15 -58 -19 -76 -34 -180 -9
-58 -9 -363 0 -415 3 -19 8 -53 12 -75 9 -57 33 -148 61 -235 30 -91 140 -320
154 -320 6 0 10 -6 10 -14 0 -42 227 -299 350 -397 62 -49 167 -119 179 -119
5 0 11 -4 13 -9 7 -20 281 -140 355 -156 10 -2 45 -11 78 -20 33 -9 76 -18 95
-20 19 -2 46 -7 60 -10 54 -14 346 -14 435 -1 364 55 664 204 916 455 134 134
239 283 312 441 61 134 73 165 108 300 36 139 43 201 43 385 1 161 -6 238 -31
350 -4 17 -8 35 -9 40 -1 6 -10 37 -20 70 -10 33 -19 65 -20 70 -11 47 -123
282 -146 306 -7 8 -20 27 -28 44 -17 33 -13 28 -103 140 -59 72 -137 151 -225
227 -140 121 -465 283 -629 312 -13 3 -31 7 -41 10 -9 3 -35 8 -57 11 -22 4
-51 9 -65 11 -46 9 -344 11 -405 3z"/>
</g>
</svg>
